/* XPM */
static char * bottom_right_active_xpm[] = {
"25 25 6 1",
" 	c None",
".	c #9D9D9D",
"+	c #F3F3F3",
"@	c #E0E0E0",
"#	c #CFCFCF",
"$	c #848484",
"                    .+@#$",
"                    .+@#$",
"                    ....$",
"                    .+@#$",
"                    .+@#$",
"                    .+@#$",
"                    .+@#$",
"                    .+@#$",
"                    .+@#$",
"                    .+@#$",
"                    .+@#$",
"                    .+@#$",
"                    .+@#$",
"                    .+@#$",
"                    .+@#$",
"                    .+@#$",
"                    .+@#$",
"                    .+@#$",
"                    .+@#$",
"                    .+@#$",
".....................+@#$",
"++.+++++++++++++++++++@#$",
"@@.@@@@@@@@@@@@@@@@@@@@#$",
"##.#####################$",
"$$$$$$$$$$$$$$$$$$$$$$$$$"};
