/* XPM */
static char * close_pressed_xpm[] = {
"16 29 28 1",
" 	c None",
".	c #B38F00",
"+	c #DAAF08",
"@	c #DBB210",
"#	c #DDB518",
"$	c #DEB820",
"%	c #E0BA28",
"&	c #E1BD30",
"*	c #E3C037",
"=	c #E4C23F",
"-	c #E6C547",
";	c #E7C84F",
">	c #E9CB57",
",	c #EACE5F",
"'	c #ECD067",
")	c #EDD36E",
"!	c #EED676",
"~	c #F0D87E",
"{	c #F1DB86",
"]	c #F3DE8E",
"^	c #F4E196",
"/	c #F6E39D",
"(	c #F7E6A5",
"_	c #F9E9AD",
":	c #FAEBB5",
"<	c #FCEEBD",
"[	c #FDF1C5",
"}	c #FFF4CD",
"                ",
"                ",
"                ",
"                ",
"                ",
"................",
".+@#$%&*=-;>,').",
".@#$%&*=-;>,')!.",
".#$%&*=-;>,')!~.",
".$%&*=-;>,')!~{.",
".%&*=-;>,')!~{].",
".&*=-;>,')!~{]^.",
".*=-;>,')!~{]^/.",
".=-;>,')!~{]^/(.",
".-;>,')!~{]^/(_.",
".;>,')!~{]^/(_:.",
".>,')!~{]^/(_:<.",
".,')!~{]^/(_:<[.",
".')!~{]^/(_:<[}.",
".)!~{]^/(_:<[}}.",
"................",
"                ",
"                ",
"                ",
"                ",
"                ",
"                ",
"                ",
"                "};
