/* XPM */
static char * left_active_xpm[] = {
"5 128 4 1",
" 	c #9D9D9D",
".	c #F3F3F3",
"+	c #E0E0E0",
"@	c #CFCFCF",
" .+@ ",
" .+@ ",
" .+@ ",
" .+@ ",
" .+@ ",
" .+@ ",
" .+@ ",
" .+@ ",
" .+@ ",
" .+@ ",
" .+@ ",
" .+@ ",
" .+@ ",
" .+@ ",
" .+@ ",
" .+@ ",
" .+@ ",
" .+@ ",
" .+@ ",
" .+@ ",
" .+@ ",
" .+@ ",
" .+@ ",
" .+@ ",
" .+@ ",
" .+@ ",
" .+@ ",
" .+@ ",
" .+@ ",
" .+@ ",
" .+@ ",
" .+@ ",
" .+@ ",
" .+@ ",
" .+@ ",
" .+@ ",
" .+@ ",
" .+@ ",
" .+@ ",
" .+@ ",
" .+@ ",
" .+@ ",
" .+@ ",
" .+@ ",
" .+@ ",
" .+@ ",
" .+@ ",
" .+@ ",
" .+@ ",
" .+@ ",
" .+@ ",
" .+@ ",
" .+@ ",
" .+@ ",
" .+@ ",
" .+@ ",
" .+@ ",
" .+@ ",
" .+@ ",
" .+@ ",
" .+@ ",
" .+@ ",
" .+@ ",
" .+@ ",
" .+@ ",
" .+@ ",
" .+@ ",
" .+@ ",
" .+@ ",
" .+@ ",
" .+@ ",
" .+@ ",
" .+@ ",
" .+@ ",
" .+@ ",
" .+@ ",
" .+@ ",
" .+@ ",
" .+@ ",
" .+@ ",
" .+@ ",
" .+@ ",
" .+@ ",
" .+@ ",
" .+@ ",
" .+@ ",
" .+@ ",
" .+@ ",
" .+@ ",
" .+@ ",
" .+@ ",
" .+@ ",
" .+@ ",
" .+@ ",
" .+@ ",
" .+@ ",
" .+@ ",
" .+@ ",
" .+@ ",
" .+@ ",
" .+@ ",
" .+@ ",
" .+@ ",
" .+@ ",
" .+@ ",
" .+@ ",
" .+@ ",
" .+@ ",
" .+@ ",
" .+@ ",
" .+@ ",
" .+@ ",
" .+@ ",
" .+@ ",
" .+@ ",
" .+@ ",
" .+@ ",
" .+@ ",
" .+@ ",
" .+@ ",
" .+@ ",
" .+@ ",
" .+@ ",
" .+@ ",
" .+@ ",
" .+@ ",
" .+@ ",
" .+@ "};
