/* XPM */
static char * left_inactive_xpm[] = {
"5 128 4 1",
" 	c #A3A3A3",
".	c #F6F6F6",
"+	c #E8E8E8",
"@	c #D6D6D6",
" .+@ ",
" .+@ ",
" .+@ ",
" .+@ ",
" .+@ ",
" .+@ ",
" .+@ ",
" .+@ ",
" .+@ ",
" .+@ ",
" .+@ ",
" .+@ ",
" .+@ ",
" .+@ ",
" .+@ ",
" .+@ ",
" .+@ ",
" .+@ ",
" .+@ ",
" .+@ ",
" .+@ ",
" .+@ ",
" .+@ ",
" .+@ ",
" .+@ ",
" .+@ ",
" .+@ ",
" .+@ ",
" .+@ ",
" .+@ ",
" .+@ ",
" .+@ ",
" .+@ ",
" .+@ ",
" .+@ ",
" .+@ ",
" .+@ ",
" .+@ ",
" .+@ ",
" .+@ ",
" .+@ ",
" .+@ ",
" .+@ ",
" .+@ ",
" .+@ ",
" .+@ ",
" .+@ ",
" .+@ ",
" .+@ ",
" .+@ ",
" .+@ ",
" .+@ ",
" .+@ ",
" .+@ ",
" .+@ ",
" .+@ ",
" .+@ ",
" .+@ ",
" .+@ ",
" .+@ ",
" .+@ ",
" .+@ ",
" .+@ ",
" .+@ ",
" .+@ ",
" .+@ ",
" .+@ ",
" .+@ ",
" .+@ ",
" .+@ ",
" .+@ ",
" .+@ ",
" .+@ ",
" .+@ ",
" .+@ ",
" .+@ ",
" .+@ ",
" .+@ ",
" .+@ ",
" .+@ ",
" .+@ ",
" .+@ ",
" .+@ ",
" .+@ ",
" .+@ ",
" .+@ ",
" .+@ ",
" .+@ ",
" .+@ ",
" .+@ ",
" .+@ ",
" .+@ ",
" .+@ ",
" .+@ ",
" .+@ ",
" .+@ ",
" .+@ ",
" .+@ ",
" .+@ ",
" .+@ ",
" .+@ ",
" .+@ ",
" .+@ ",
" .+@ ",
" .+@ ",
" .+@ ",
" .+@ ",
" .+@ ",
" .+@ ",
" .+@ ",
" .+@ ",
" .+@ ",
" .+@ ",
" .+@ ",
" .+@ ",
" .+@ ",
" .+@ ",
" .+@ ",
" .+@ ",
" .+@ ",
" .+@ ",
" .+@ ",
" .+@ ",
" .+@ ",
" .+@ ",
" .+@ ",
" .+@ ",
" .+@ "};
