/* XPM */
static char * maximize_active_xpm[] = {
"16 29 25 1",
" 	c None",
".	c #B38F00",
"+	c #FFFAE9",
"@	c #FFF6D4",
"#	c #FFF1BE",
"$	c #FFEDA9",
"%	c #FFE994",
"&	c #FFE47E",
"*	c #FFE069",
"=	c #FFDC54",
"-	c #FFD83F",
";	c #FFD73E",
">	c #FFD329",
",	c #FFCF14",
"'	c #FFF0B7",
")	c #FFEA9B",
"!	c #FFE78D",
"~	c #FFE57F",
"{	c #FFE170",
"]	c #FFCB00",
"^	c #FFDF62",
"/	c #FFD946",
"(	c #FFD637",
"_	c #FFD01B",
":	c #FFCD0D",
"                ",
"                ",
"                ",
"                ",
"                ",
".........       ",
".+@#$%&*.       ",
".@#$%&*=.       ",
".#$%&*=-.       ",
".$%&*=;>........",
".%&*=;>,.'$)!~{.",
".&*=;>,].$)!&{^.",
".*=;>,]].)!&{^=.",
".........!&{^=/.",
"    .'$)!~{^=/(.",
"    .$)!&{^=/(>.",
"    .)!&{^=/(>_.",
"    .!&{^=/(>_:.",
"    .&{^=/(>_:].",
"    .{^=/(>_:]].",
"    ............",
"                ",
"                ",
"                ",
"                ",
"                ",
"                ",
"                ",
"                "};
