/* XPM */
static char * maximize_inactive_xpm[] = {
"16 29 21 1",
" 	c None",
".	c #A3A3A3",
"+	c #FDFDFD",
"@	c #FBFBFB",
"#	c #F9F9F9",
"$	c #F7F7F7",
"%	c #F5F5F5",
"&	c #F3F3F3",
"*	c #F1F1F1",
"=	c #EFEFEF",
"-	c #EDEDED",
";	c #EBEBEB",
">	c #E9E9E9",
",	c #F8F8F8",
"'	c #F6F6F6",
")	c #F4F4F4",
"!	c #F2F2F2",
"~	c #E8E8E8",
"{	c #F0F0F0",
"]	c #EEEEEE",
"^	c #EAEAEA",
"                ",
"                ",
"                ",
"                ",
"                ",
".........       ",
".+@#$%&*.       ",
".@#$%&*=.       ",
".#$%&*=-.       ",
".$%&*=-;........",
".%&*=-;>.,$')&!.",
".&*=-;>~.$')&!{.",
".*=-;>~~.')&!{=.",
".........)&!{=].",
"    .,$')&!{=]-.",
"    .$')&!{=]-;.",
"    .')&!{=]-;^.",
"    .)&!{=]-;^>.",
"    .&!{=]-;^>~.",
"    .!{=]-;^>~~.",
"    ............",
"                ",
"                ",
"                ",
"                ",
"                ",
"                ",
"                ",
"                "};
