/* XPM */
static char * right_active_xpm[] = {
"5 128 5 1",
" 	c #9D9D9D",
".	c #F3F3F3",
"+	c #E0E0E0",
"@	c #CFCFCF",
"#	c #848484",
" .+@#",
" .+@#",
" .+@#",
" .+@#",
" .+@#",
" .+@#",
" .+@#",
" .+@#",
" .+@#",
" .+@#",
" .+@#",
" .+@#",
" .+@#",
" .+@#",
" .+@#",
" .+@#",
" .+@#",
" .+@#",
" .+@#",
" .+@#",
" .+@#",
" .+@#",
" .+@#",
" .+@#",
" .+@#",
" .+@#",
" .+@#",
" .+@#",
" .+@#",
" .+@#",
" .+@#",
" .+@#",
" .+@#",
" .+@#",
" .+@#",
" .+@#",
" .+@#",
" .+@#",
" .+@#",
" .+@#",
" .+@#",
" .+@#",
" .+@#",
" .+@#",
" .+@#",
" .+@#",
" .+@#",
" .+@#",
" .+@#",
" .+@#",
" .+@#",
" .+@#",
" .+@#",
" .+@#",
" .+@#",
" .+@#",
" .+@#",
" .+@#",
" .+@#",
" .+@#",
" .+@#",
" .+@#",
" .+@#",
" .+@#",
" .+@#",
" .+@#",
" .+@#",
" .+@#",
" .+@#",
" .+@#",
" .+@#",
" .+@#",
" .+@#",
" .+@#",
" .+@#",
" .+@#",
" .+@#",
" .+@#",
" .+@#",
" .+@#",
" .+@#",
" .+@#",
" .+@#",
" .+@#",
" .+@#",
" .+@#",
" .+@#",
" .+@#",
" .+@#",
" .+@#",
" .+@#",
" .+@#",
" .+@#",
" .+@#",
" .+@#",
" .+@#",
" .+@#",
" .+@#",
" .+@#",
" .+@#",
" .+@#",
" .+@#",
" .+@#",
" .+@#",
" .+@#",
" .+@#",
" .+@#",
" .+@#",
" .+@#",
" .+@#",
" .+@#",
" .+@#",
" .+@#",
" .+@#",
" .+@#",
" .+@#",
" .+@#",
" .+@#",
" .+@#",
" .+@#",
" .+@#",
" .+@#",
" .+@#",
" .+@#",
" .+@#",
" .+@#",
" .+@#",
" .+@#"};
