/* XPM */
static char * title_2_inactive_xpm[] = {
"5 29 19 1",
" 	c #A3A3A3",
".	c #F6F6F6",
"+	c #F8F8F8",
"@	c #F7F7F7",
"#	c #F5F5F5",
"$	c #F4F4F4",
"%	c #F3F3F3",
"&	c #F2F2F2",
"*	c #F1F1F1",
"=	c #F0F0F0",
"-	c #EFEFEF",
";	c #EEEEEE",
">	c #EDEDED",
",	c #ECECEC",
"'	c #EBEBEB",
")	c #EAEAEA",
"!	c #E9E9E9",
"~	c #E8E8E8",
"{	c #D6D6D6",
"     ",
".....",
"+++++",
"@@@@@",
".....",
".....",
"#####",
"$$$$$",
"$$$$$",
"%%%%%",
"&&&&&",
"*****",
"*****",
"=====",
"-----",
";;;;;",
";;;;;",
">>>>>",
",,,,,",
",,,,,",
"'''''",
")))))",
"!!!!!",
"!!!!!",
"~~~~~",
"~~~~~",
"~~~~~",
"{{{{{",
"     "};
