/* XPM */
static char * title_2_active_xpm[] = {
"5 29 26 1",
" 	c #9D9D9D",
".	c #FFEA9C",
"+	c #FFEFB4",
"@	c #FFEDAC",
"#	c #FFECA4",
"$	c #FFE994",
"%	c #FFE78B",
"&	c #FFE583",
"*	c #FFE47B",
"=	c #FFE273",
"-	c #FFE06B",
";	c #FFDF62",
">	c #FFDD5A",
",	c #FFDB52",
"'	c #FFDA4A",
")	c #FFD842",
"!	c #FFD639",
"~	c #FFD531",
"{	c #FFD329",
"]	c #FFD221",
"^	c #FFD019",
"/	c #FFCE10",
"(	c #FFCD08",
"_	c #FFCB00",
":	c #E0E0E0",
"<	c #CFCFCF",
"     ",
".....",
"+++++",
"@@@@@",
"#####",
".....",
"$$$$$",
"%%%%%",
"&&&&&",
"*****",
"=====",
"-----",
";;;;;",
">>>>>",
",,,,,",
"'''''",
")))))",
"!!!!!",
"~~~~~",
"{{{{{",
"]]]]]",
"^^^^^",
"/////",
"(((((",
"_____",
":::::",
":::::",
"<<<<<",
"     "};
