/* XPM */
static char * title_4_active_xpm[] = {
"16 29 29 1",
" 	c #9D9D9D",
".	c #848484",
"+	c #FFEA9C",
"@	c #FFEFB4",
"#	c #ECBC00",
"$	c #FFEDAC",
"%	c #FFECA4",
"&	c #FFE994",
"*	c #FFE78B",
"=	c #FFE583",
"-	c #FFE47B",
";	c #FFE273",
">	c #FFE06B",
",	c #FFDF62",
"'	c #FFDD5A",
")	c #FFDB52",
"!	c #FFDA4A",
"~	c #FFD842",
"{	c #FFD639",
"]	c #FFD531",
"^	c #FFD329",
"/	c #FFD221",
"(	c #FFD019",
"_	c #FFCE10",
":	c #FFCD08",
"<	c #FFCB00",
"[	c #E0E0E0",
"}	c #F3F3F3",
"|	c #CFCFCF",
"               .",
"+++++++++++++++.",
"@@@@@@@@@@@@@@#.",
"$$$$$$$$$$$$$$#.",
"%%%%%%%%%%%%%%#.",
"++++++++++++++#.",
"&&&&&&&&&&&&&&#.",
"**************#.",
"==============#.",
"--------------#.",
";;;;;;;;;;;;;;#.",
">>>>>>>>>>>>>>#.",
",,,,,,,,,,,,,,#.",
"''''''''''''''#.",
"))))))))))))))#.",
"!!!!!!!!!!!!!!#.",
"~~~~~~~~~~~~~~#.",
"{{{{{{{{{{{{{{#.",
"]]]]]]]]]]]]]]#.",
"^^^^^^^^^^^^^^#.",
"//////////////#.",
"((((((((((((((#.",
"______________#.",
"::::::::::::::#.",
"<<<<<<<<<<<<<<#.",
"[[[[[[[[[[[[[[}}",
"[[[[[[[[[[[[[[[[",
"||||||||||||||||",
"                "};
