/* XPM */
static char * top_right_inactive_xpm[] = {
"25 47 6 1",
" 	c None",
".	c #A3A3A3",
"+	c #898989",
"@	c #F6F6F6",
"#	c #D6D6D6",
"$	c #E8E8E8",
"                         ",
"                         ",
"                         ",
"                         ",
"                         ",
"                         ",
"                         ",
"                         ",
"                         ",
"                         ",
"                         ",
"                         ",
"                         ",
"                         ",
"                         ",
"                         ",
"                         ",
"                         ",
"                         ",
"                         ",
"                         ",
"                         ",
"                         ",
"                         ",
"........................+",
"@@@@@@@@@@@@@@@@@@@@@@@#+",
"$$$$$$$$$$$$$$$$$$$$$$$#+",
"#####################@$#+",
".....................@$#+",
"                    .@$#+",
"                    .@$#+",
"                    .@$#+",
"                    .@$#+",
"                    .@$#+",
"                    .@$#+",
"                    .@$#+",
"                    .@$#+",
"                    .@$#+",
"                    .@$#+",
"                    .@$#+",
"                    .@$#+",
"                    .@$#+",
"                    .@$#+",
"                    .@$#+",
"                    .@$#+",
"                    .@$#+",
"                    .@$#+"};
