/* XPM */
static char * top_left_active_xpm[] = {
"25 44 28 1",
" 	c None",
".	c #9D9D9D",
"+	c #FFEA9C",
"@	c #FFEFB4",
"#	c #FFEDAC",
"$	c #FFECA4",
"%	c #FFE994",
"&	c #FFE78B",
"*	c #FFE583",
"=	c #FFE47B",
"-	c #FFE273",
";	c #FFE06B",
">	c #FFDF62",
",	c #FFDD5A",
"'	c #FFDB52",
")	c #FFDA4A",
"!	c #FFD842",
"~	c #FFD639",
"{	c #FFD531",
"]	c #FFD329",
"^	c #FFD221",
"/	c #FFD019",
"(	c #FFCE10",
"_	c #FFCD08",
":	c #FFCB00",
"<	c #F3F3F3",
"[	c #E0E0E0",
"}	c #CFCFCF",
".........................",
".++++++++++++++++++++++++",
".+@@@@@@@@@@@@@@@@@@@@@@@",
".+#######################",
".+$$$$$$$$$$$$$$$$$$$$$$$",
".++++++++++++++++++++++++",
".+%%%%%%%%%%%%%%%%%%%%%%%",
".+&&&&&&&&&&&&&&&&&&&&&&&",
".+***********************",
".+=======================",
".+-----------------------",
".+;;;;;;;;;;;;;;;;;;;;;;;",
".+>>>>>>>>>>>>>>>>>>>>>>>",
".+,,,,,,,,,,,,,,,,,,,,,,,",
".+'''''''''''''''''''''''",
".+)))))))))))))))))))))))",
".+!!!!!!!!!!!!!!!!!!!!!!!",
".+~~~~~~~~~~~~~~~~~~~~~~~",
".+{{{{{{{{{{{{{{{{{{{{{{{",
".+]]]]]]]]]]]]]]]]]]]]]]]",
".+^^^^^^^^^^^^^^^^^^^^^^^",
".+///////////////////////",
".+(((((((((((((((((((((((",
".+_______________________",
".+:::::::::::::::::::::::",
".<[[[[[[[[[[[[[[[[[[[[[[[",
".<[[[[[[[[[[[[[[[[[[[[[[[",
".<[}}}}}}}}}}}}}}}}}}}}}}",
".<[}.....................",
".<[}.                    ",
".<[}.                    ",
".<[}.                    ",
".<[}.                    ",
".<[}.                    ",
".<[}.                    ",
".<[}.                    ",
".<[}.                    ",
".<[}.                    ",
".<[}.                    ",
".<[}.                    ",
".<[}.                    ",
".<[}.                    ",
".<[}.                    ",
".<[}.                    "};
